<?xml version="1.0" encoding="utf-8"?>
<!-- Generator: Adobe Illustrator 25.0.0, SVG Export Plug-In . SVG Version: 6.00 Build 0)  -->
<svg version="1.1" id="Capa_1" xmlns="http://www.w3.org/2000/svg" xmlns:xlink="http://www.w3.org/1999/xlink" x="0px" y="0px"
	 viewBox="0 0 419.9 419.9" style="enable-background:new 0 0 419.9 419.9;" xml:space="preserve">
<style type="text/css">
	.st0{fill:#FCFAFA;stroke:#FFFFFF;stroke-miterlimit:10;}
</style>
<g>
	<g>
		<g>
			<path class="st0" d="M282.9,364.5c-2.2-1.4-4.1-3.3-5.6-5.6c-0.7-1.1-1.3-2.2-1.8-3.3H28.3V92h335.6V264
				c7.2,0.6,13.2,5.8,15.7,12.8c2.2-1.3,4.7-2.2,7.3-2.4c1.8-0.2,3.5,0,5.2,0.3V26.5c0-14-10.6-25.5-23.6-25.5H23.6
				C10.6,0.9,0,12.4,0,26.5v334c0,14,10.6,25.5,23.6,25.5h257.2c-2-4.4-2.5-9.4-1.3-14.2C280.1,369.1,281.3,366.6,282.9,364.5z
				 M338,43.7c0-5.2,3.9-9.4,8.7-9.4h8.7c4.8,0,8.7,4.2,8.7,9.4v10.7c0,5.2-3.9,9.4-8.7,9.4h-8.7c-4.8,0-8.7-4.2-8.7-9.4V43.7z
				 M297.6,43.7c0-5.2,3.9-9.4,8.7-9.4h8.7c4.8,0,8.7,4.2,8.7,9.4v10.7c0,5.2-3.9,9.4-8.7,9.4h-8.7c-4.8,0-8.7-4.2-8.7-9.4V43.7z
				 M257.1,43.7c0-5.2,3.9-9.4,8.7-9.4h8.7c4.8,0,8.7,4.2,8.7,9.4v10.7c0,5.2-3.9,9.4-8.7,9.4h-8.7c-4.8,0-8.7-4.2-8.7-9.4V43.7z"/>
			<path class="st0" d="M419.9,346.5l-2.6-16c-0.4-2.2-2.3-3.6-4.3-3.2l-13.2,2.5c-1.6-4-3.6-7.8-6-11.2l8.6-11.1
				c0.6-0.8,0.9-1.8,0.8-2.9s-0.6-2.1-1.3-2.7l-11.5-10.5c-0.7-0.6-1.7-1-2.7-0.9s-1.9,0.6-2.5,1.4l-8.6,11.1
				c-3.5-1.9-7.3-3.5-11.3-4.4v-14.5c0-2.2-1.6-4-3.7-4h-15.1c-2,0-3.7,1.7-3.7,4v14.5c-4,1-7.7,2.5-11.3,4.4l-8.6-11.1
				c-1.3-1.7-3.6-1.9-5.2-0.5l-11.5,10.5c-0.7,0.6-1.2,1.6-1.3,2.7c-0.1,1.1,0.2,2.1,0.8,2.9l8.6,11.1c-2.4,3.5-4.4,7.2-6,11.2
				l-13.2-2.5c-2-0.4-3.9,1.1-4.3,3.2l-2.6,16c-0.2,1.1,0,2.1,0.6,2.9c0.6,0.9,1.4,1.4,2.4,1.6l13.2,2.5c0.2,4.4,0.9,8.6,2.1,12.8
				l-11.6,7.2c-0.8,0.5-1.5,1.4-1.7,2.4c-0.3,1-0.1,2.1,0.4,3l7.5,14c0.5,0.9,1.3,1.6,2.2,1.8c0.3,0.1,0.6,0.1,1,0.1
				c0.6,0,1.3-0.2,1.8-0.5l11.6-7.2c2.7,3.1,5.8,5.9,9.2,8.3l-4.6,13.6c-0.3,1-0.3,2.1,0.1,3s1.2,1.7,2.1,2.1l14.1,5.5
				c0.4,0.1,0.8,0.2,1.3,0.2s1.1-0.1,1.6-0.3c0.9-0.4,1.6-1.3,1.9-2.3l4.6-13.6c2,0.2,4,0.4,6,0.4s4-0.1,6-0.4l4.6,13.6
				c0.3,1,1,1.8,1.9,2.3c0.5,0.2,1,0.3,1.6,0.3c0.4,0,0.9-0.1,1.3-0.2l14.1-5.5c0.9-0.3,1.7-1.1,2.1-2.1s0.5-2.1,0.1-3l-4.6-13.6
				c3.4-2.4,6.4-5.2,9.2-8.3l11.6,7.2c0.6,0.3,1.2,0.5,1.8,0.5c0.3,0,0.6,0,1-0.1c0.9-0.3,1.7-1,2.2-1.8l7.5-14
				c0.5-0.9,0.6-1.9,0.4-3c-0.3-1-0.9-1.8-1.7-2.4l-11.6-7.2c1.1-4.1,1.9-8.3,2.1-12.8l13.2-2.5c1-0.2,1.8-0.8,2.4-1.6
				C419.8,348.6,420,347.5,419.9,346.5z M354.2,371.9c-11.2,0-20.2-9.7-20.2-21.8c0-12.1,9-21.8,20.2-21.8s20.2,9.7,20.2,21.8
				C374.4,362.2,365.3,371.9,354.2,371.9z"/>
			<g>
				<path class="st0" d="M164.7,238c0-5.2-2.8-9.8-7.1-12l-39.5-19.8l39.5-19.8c4.3-2.2,7.1-6.9,7.1-12v-0.3c0-4.5-2.1-8.8-5.7-11.1
					c-2-1.4-4.2-2.1-6.6-2.1c-1.8,0-3.6,0.4-5.2,1.2l-63.1,31.7c-4.3,2.2-7.1,6.9-7.1,12v1c0,5.1,2.8,9.8,7.1,12l63.1,31.7
					c1.6,0.9,3.4,1.2,5.2,1.2c2.3,0,4.6-0.8,6.6-2.1c3.5-2.5,5.7-6.6,5.7-11.1V238L164.7,238z"/>
				<path class="st0" d="M226.9,128.5c-2.3-3.3-6-5.4-9.9-5.4h-0.3c-5.4,0-10,3.7-11.7,9.2l-41.6,139.2c-1.2,4-0.5,8.4,1.8,11.9
					c2.3,3.3,6,5.4,9.9,5.4h0.3c5.4,0,10-3.7,11.7-9.2l41.6-139.2C229.9,136.3,229.2,131.9,226.9,128.5z"/>
				<path class="st0" d="M308,193.7L244.9,162c-1.6-0.8-3.4-1.2-5.2-1.2c-2.4,0-4.6,0.8-6.6,2.1c-3.6,2.5-5.7,6.6-5.7,11.1v0.3
					c0,5.1,2.8,9.8,7.1,12L274,206l-39.5,19.8c-4.3,2.2-7.1,6.9-7.1,12v0.3c0,4.5,2.1,8.8,5.7,11.1c2,1.4,4.3,2.1,6.6,2.1
					c1.8,0,3.5-0.4,5.2-1.2l63.1-31.7c4.3-2.2,7.1-6.9,7.1-12v-1C315.1,200.5,312.3,195.9,308,193.7z"/>
			</g>
		</g>
	</g>
</g>
</svg>
